<svg xmlns="http://www.w3.org/2000/svg" viewBox="0 0 32 23"><defs><style>.cls-1{fill:#231f20;}</style></defs><title>Asset 11</title><g id="Layer_2" data-name="Layer 2"><g id="Icons"><g id="Mail_2_Filled" data-name="Mail 2 Filled"><path class="cls-1" d="M31,2l-9.93,8.61,10.14,10A5,5,0,0,0,32,18V5A5,5,0,0,0,31,2Z"/><path class="cls-1" d="M29.5.7A4.93,4.93,0,0,0,27,0H5A5,5,0,0,0,2.28.82L15.75,12.63Z"/><path class="cls-1" d="M16.4,14.71a1,1,0,0,1-1.31,0L12.22,12.2l-10,10A5,5,0,0,0,5,23H27a5,5,0,0,0,2.84-.9L19.56,12Z"/><path class="cls-1" d="M.85,2.22A5,5,0,0,0,0,5V18a5,5,0,0,0,.84,2.75l9.88-9.88Z"/></g></g></g></svg>