<svg xmlns="http://www.w3.org/2000/svg" viewBox="0 0 30.5 30.5"><title>Asset 12</title><g id="Layer_2" data-name="Layer 2"><g id="Icons"><g id="Phone_FIlled" data-name="Phone FIlled"><path d="M25.23,19.27a2.33,2.33,0,0,0-3.51,0c-.82.81-1.64,1.63-2.45,2.46a.48.48,0,0,1-.68.12c-.53-.29-1.1-.52-1.61-.84a25.48,25.48,0,0,1-6.15-5.59,14.56,14.56,0,0,1-2.2-3.53.51.51,0,0,1,.12-.65c.82-.79,1.62-1.61,2.43-2.42a2.33,2.33,0,0,0,0-3.6L9.25,3.28c-.66-.66-1.32-1.33-2-2a2.34,2.34,0,0,0-3.51,0c-.83.82-1.62,1.65-2.47,2.45A4,4,0,0,0,0,6.45a11.44,11.44,0,0,0,.88,4.92,29.91,29.91,0,0,0,5.31,8.85A32.86,32.86,0,0,0,17.1,28.73a15.74,15.74,0,0,0,6,1.75A4.42,4.42,0,0,0,26.92,29c.7-.79,1.5-1.51,2.24-2.26a2.35,2.35,0,0,0,0-3.58Z"/><path d="M30.41,13.56A25.55,25.55,0,0,0,16.86.07a1,1,0,0,0-1.29.56A1,1,0,0,0,16.12,2,23.56,23.56,0,0,1,28.61,14.4a1,1,0,0,0,.9.6,1,1,0,0,0,.4-.09A1,1,0,0,0,30.41,13.56Z"/><path d="M15.6,7.39a14.27,14.27,0,0,1,7.58,7.53,1,1,0,0,0,.87.58.92.92,0,0,0,.39-.09,1,1,0,0,0,.48-1.3,16.2,16.2,0,0,0-8.6-8.54.94.94,0,0,0-1.24.54A1,1,0,0,0,15.6,7.39Z"/></g></g></g></svg>